<?xml version="1.0" encoding="UTF-8"?>
<!DOCTYPE svg
PUBLIC "-//W3C//DTD SVG 1.1//EN"
       "http://www.w3.org/Graphics/SVG/1.1/DTD/svg11.dtd">
<svg version="1.1" xmlns="http://www.w3.org/2000/svg" xmlns:xlink="http://www.w3.org/1999/xlink" width="19.8007" height="21.5752">
 <g>
  <rect height="21.5752" opacity="0" width="19.8007" x="0" y="0"/>
  <path d="M2.10515 21.5752L17.6977 21.5752C19.0148 21.5752 19.8007 20.9512 19.8007 19.9153C19.8007 16.9003 15.9776 12.7537 9.89555 12.7537C3.82523 12.7537 0 16.9003 0 19.9153C0 20.9512 0.787967 21.5752 2.10515 21.5752ZM9.90515 10.673C12.4594 10.673 14.6327 8.40187 14.6327 5.46586C14.6327 2.58398 12.453 0.390937 9.90515 0.390937C7.35727 0.390937 5.17547 2.62453 5.17969 5.48719C5.1818 8.40187 7.34344 10.673 9.90515 10.673Z" fill="#ffffff"/>
 </g>
</svg>
