<?xml version="1.0" encoding="UTF-8"?>
<!DOCTYPE svg
PUBLIC "-//W3C//DTD SVG 1.1//EN"
       "http://www.w3.org/Graphics/SVG/1.1/DTD/svg11.dtd">
<svg version="1.1" xmlns="http://www.w3.org/2000/svg" xmlns:xlink="http://www.w3.org/1999/xlink" width="14.6238" height="24.3014">
 <g>
  <rect height="24.3014" opacity="0" width="14.6238" x="0" y="0"/>
  <path d="M14.6238 5.95547L14.6238 1.56398C14.6238 0.860624 14.0482 0.401017 13.3704 0.537189L7.33007 1.85391C6.51679 2.03063 6.07078 2.48508 6.07078 3.19828L6.09 16.181C6.14015 16.7025 5.90226 17.0311 5.44359 17.126L3.56765 17.5148C1.15851 18.0176 0 19.2635 0 21.1153C0 22.9948 1.43765 24.3014 3.47156 24.3014C5.3946 24.3014 7.91788 22.8691 7.91788 19.5202L7.91788 8.78273C7.91788 8.2207 7.98866 8.13819 8.49515 8.02734L13.8865 6.84913C14.3398 6.75445 14.6238 6.40124 14.6238 5.95547Z" fill="#ffffff"/>
 </g>
</svg>
