<?xml version="1.0" encoding="UTF-8"?>
<!DOCTYPE svg
PUBLIC "-//W3C//DTD SVG 1.1//EN"
       "http://www.w3.org/Graphics/SVG/1.1/DTD/svg11.dtd">
<svg version="1.1" xmlns="http://www.w3.org/2000/svg" xmlns:xlink="http://www.w3.org/1999/xlink" width="26.8558" height="22.0575">
 <g>
  <rect height="22.0575" opacity="0" width="26.8558" x="0" y="0"/>
  <path d="M0 18.0192C0 20.5294 1.31484 21.825 3.84421 21.825L23.3062 21.825C25.541 21.825 26.8558 20.5198 26.8558 18.0192L26.8558 8.68193L0 8.68193ZM0 7.00124L26.8558 7.00124L26.8558 5.96718C26.8558 3.46664 25.5314 2.16141 23.0116 2.16141L12.1076 2.16141C11.2706 2.16141 10.7627 1.96758 10.1219 1.43625L9.44928 0.892499C8.62944 0.217265 8.02335 0 6.79569 0L3.47905 0C1.29539 0 0 1.27523 0 3.73405Z" fill="#ffffff"/>
 </g>
</svg>
